<svg width="31" height="26" viewBox="0 0 31 26" fill="none" xmlns="http://www.w3.org/2000/svg">
<path d="M0.908203 0.5H27.5488C27.7723 0.500001 27.957 0.682502 27.957 0.912109C27.957 1.14171 27.7723 1.32422 27.5488 1.32422H0.908203C0.684775 1.32422 0.500006 1.14171 0.5 0.912109C0.5 0.682499 0.684772 0.500002 0.908203 0.5Z" stroke="#EB9190"/>
<path d="M0.969727 11.4452H6.14453C6.43344 11.4454 6.61426 11.6584 6.61426 11.8573C6.61425 12.0562 6.43344 12.2692 6.14453 12.2694H0.969727C0.680826 12.2692 0.500006 12.0562 0.5 11.8573C0.5 11.6584 0.680821 11.4454 0.969727 11.4452Z" stroke="#EB9190"/>
<path d="M0.842773 22.3904H9.8291C9.98155 22.3905 10.1719 22.5369 10.1719 22.8025C10.1719 23.0681 9.98154 23.2145 9.8291 23.2146H0.842773C0.690265 23.2146 0.500005 23.0682 0.5 22.8025C0.5 22.5368 0.690263 22.3904 0.842773 22.3904Z" stroke="#EB9190"/>
<path d="M18.3786 4.86452C14.1222 4.86452 10.6714 8.40359 10.6714 12.7694C10.6714 17.135 14.122 20.6742 18.3784 20.6742C22.6349 20.6742 26.0856 17.135 26.0856 12.7694C26.0856 8.40359 22.635 4.86452 18.3786 4.86452Z" stroke="#EB9190" stroke-width="1.51789"/>
<path d="M29.855 23.8982L29.229 24.5408L25.0747 20.2801L25.7017 19.6375L29.855 23.8982Z" stroke="#EB9190"/>
</svg>
