<svg width="84" height="73" viewBox="0 0 84 73" fill="none" xmlns="http://www.w3.org/2000/svg">
<path d="M1 1H13L18 16H83L73 51H28L13 8H1V1Z" fill="#464646" stroke="#464646" stroke-width="2" stroke-linejoin="round"/>
<path d="M36 59.5C39.5899 59.5 42.5 62.4101 42.5 66C42.5 69.5899 39.5899 72.5 36 72.5C32.4101 72.5 29.5 69.5899 29.5 66C29.5 62.4101 32.4101 59.5 36 59.5Z" fill="#464646" stroke="#464646"/>
<path d="M66 59.5C69.5899 59.5 72.5 62.4101 72.5 66C72.5 69.5899 69.5899 72.5 66 72.5C62.4101 72.5 59.5 69.5899 59.5 66C59.5 62.4101 62.4101 59.5 66 59.5Z" fill="#464646" stroke="#464646"/>
</svg>
