<svg width="29" height="27" viewBox="0 0 29 27" fill="none" xmlns="http://www.w3.org/2000/svg">
<path d="M12.9873 12.1604C16.0593 12.1604 18.5498 9.60607 18.5498 6.4552C18.5498 3.30431 16.0593 0.75 12.9873 0.75C9.91524 0.75 7.4248 3.30431 7.4248 6.4552C7.4248 9.60607 9.91524 12.1604 12.9873 12.1604Z" stroke="#EB9190" stroke-width="1.5" stroke-miterlimit="10"/>
<path d="M0.75 24.6945L1.18123 22.9123C1.69065 20.854 3.15057 18.9939 5.30736 17.6551C7.46415 16.3163 10.1815 15.5833 12.9875 15.5835C15.7968 15.584 17.5052 15.9528 19.6625 17.2951" stroke="#EB9190" stroke-width="1.5" stroke-miterlimit="10" stroke-linecap="round"/>
<path d="M23.5557 17.2246C23.7284 17.2246 23.8905 17.3717 23.8906 17.58V26.1386C23.8904 26.3469 23.7283 26.4941 23.5557 26.4941C23.3832 26.4939 23.2219 26.3467 23.2217 26.1386V17.58C23.2218 17.3719 23.3831 17.2248 23.5557 17.2246Z" stroke="#EB9190"/>
<path d="M19.3838 21.5034H27.7275C27.9002 21.5034 28.0623 21.6506 28.0625 21.8589C28.0625 22.0674 27.9003 22.2154 27.7275 22.2154H19.3838C19.2111 22.2151 19.0498 22.0673 19.0498 21.8589C19.05 21.6507 19.2112 21.5037 19.3838 21.5034Z" stroke="#EB9190"/>
</svg>
